# xmcd
# 
# Track frame offsets:
#     187
#     15997
#     30317
#     45470
#     57762
#     74947
#     87170
#     99077
#     112195
#     128942
# 
# Disc length: 1882
# 
# Revision: 5
# Processed by: cddbd v1.5.1PL0 Copyright (c) Steve Scherf et al.
# Submitted via: BonkEnc v1.0beta3
# 
DISCID=7b07580a
DTITLE=George Jones - Walls Can Fall
DYEAR=1992
DGENRE=Country
TTITLE0=I Don't Need Your Rockin' Chair
TTITLE1=Walls Can Fall
TTITLE2=Don't Send Me No Angels
TTITLE3=Drive Me To Drink 
TTITLE4=What Am I Doing Here 
TTITLE5=Wrong's What I Do Best
TTITLE6=There's The Door 
TTITLE7=You Must Have Walked Across My Mind Again
TTITLE8=Bottle Let Me Down
TTITLE9=Finally Friday
EXTD=
EXTT0=
EXTT1=
EXTT2=
EXTT3=
EXTT4=
EXTT5=
EXTT6=
EXTT7=
EXTT8=
EXTT9=
PLAYORDER=
